PathFileType	4	(X/Y/Z)	C:\Users\86182\Documents\cortex\Trimmed_M1_L1.trc
DataRate	CameraRate	NumFrames	NumMarkers	Units	OrigDataRate	OrigDataStartFrame	OrigNumFrames
100.00	100.00	      140	2	mm	100.00	601	      1001
Frame#	Time	gripper			box			
		X1	Y1	Z1	X2	Y2	Z2	

601	6.000	197.10120	193.52419	293.25217	199.33757	192.49045	158.08055	
602	6.010	197.10120	193.52419	293.25217	199.33217	192.48044	158.07741	
603	6.020	197.10475	193.52501	293.26126	199.33673	192.48076	158.08237	
604	6.030	197.09909	193.52373	293.24670	199.35135	192.48778	158.09653	
605	6.040	197.10262	193.52452	293.25580	199.33847	192.47760	158.06403	
606	6.050	197.10120	193.52419	293.25217	199.34950	192.49062	158.09367	
607	6.060	197.10544	193.52515	293.26309	199.33310	192.47902	158.07883	
608	6.070	197.10687	193.52548	293.26675	199.34404	192.48428	158.08942	
609	6.080	197.10048	193.52403	293.25034	199.35316	192.48865	158.09831	
610	6.090	197.10048	193.52403	293.25034	199.32767	192.47641	158.07358	
611	6.100	197.10403	193.52484	293.25943	199.32947	192.47728	158.07532	
612	6.110	197.10759	193.52563	293.26859	199.33484	192.48730	158.07843	
613	6.120	197.09981	193.52390	293.24854	199.31242	192.47134	158.06480	
614	6.130	197.09558	193.52295	293.23764	199.32225	192.47383	158.06831	
615	6.140	197.10687	193.52548	293.26675	199.33444	192.48431	158.07878	
616	6.150	197.09767	193.52341	293.24307	199.32225	192.47383	158.06831	
617	6.160	197.10971	193.52611	293.27411	199.32404	192.47467	158.07007	
618	6.170	197.10616	193.52531	293.26492	199.34586	192.48515	158.09119	
619	6.180	197.10048	193.52403	293.25034	199.34311	192.48570	158.08798	
620	6.190	197.10120	193.52419	293.25217	199.34586	192.48515	158.09119	
621	6.200	197.10687	193.52548	293.26675	199.34769	192.48602	158.09297	
622	6.210	197.10971	193.52611	293.27411	199.35316	192.48865	158.09831	
623	6.220	197.10048	193.52403	293.25034	199.34492	192.49028	158.08870	
624	6.230	197.10262	193.52452	293.25580	199.33128	192.47815	158.07707	
625	6.240	197.09909	193.52373	293.24670	199.34952	192.48689	158.09474	
626	6.250	197.10048	193.52403	293.25034	199.32404	192.47467	158.07007	
627	6.260	197.10403	193.52484	293.25943	199.32947	192.47728	158.07532	
628	6.270	197.10616	193.52531	293.26492	199.33673	192.48076	158.08237	
629	6.280	197.10120	193.52419	293.25217	199.34036	192.48250	158.08588	
630	6.290	197.09872	193.52034	293.25851	199.33488	192.47986	158.08060	
631	6.300	197.10403	193.52484	293.25943	199.35316	192.48865	158.09831	
632	6.310	197.10333	193.52469	293.25760	199.34952	192.48689	158.09474	
633	6.320	197.10475	193.52501	293.26126	199.33855	192.48163	158.08412	
634	6.330	197.10190	193.52435	293.25397	199.34904	192.49132	158.09296	
635	6.340	197.09558	193.52295	293.23764	199.30875	192.47293	158.05360	
636	6.350	197.09767	193.52341	293.24307	199.32903	192.47798	158.07460	
637	6.360	197.09981	193.52390	293.24854	199.35040	192.49290	158.09402	
638	6.370	197.09837	193.52357	293.24487	199.33128	192.47815	158.07707	
639	6.380	197.10120	193.52419	293.25217	199.32983	192.48398	158.07387	
640	6.390	197.10262	193.52452	293.25580	199.35316	192.48865	158.09831	
641	6.400	197.10120	193.52419	293.25217	199.33855	192.48163	158.08412	
642	6.410	197.10616	193.52531	293.26492	199.34952	192.48689	158.09474	
643	6.420	197.10190	193.52435	293.25397	199.35135	192.48778	158.09653	
644	6.430	197.10262	193.52452	293.25580	199.31865	192.47209	158.06483	
645	6.440	197.10759	193.52563	293.26859	199.35316	192.48865	158.09831	
646	6.450	197.10826	193.52577	293.27042	199.33989	192.48692	158.08408	
647	6.460	197.09909	193.52373	293.24670	199.33855	192.48163	158.08412	
648	6.470	197.10475	193.52501	293.26126	199.34401	192.48799	158.08833	
649	6.480	197.09558	193.52295	293.23764	199.32622	192.48224	158.07036	
650	6.490	197.09628	193.52310	293.23944	199.31454	192.47845	158.05843	
651	6.500	197.10120	193.52419	293.25217	199.35135	192.48778	158.09653	
652	6.510	197.09558	193.52295	293.23764	199.33673	192.48076	158.08237	
653	6.520	197.09558	193.52295	293.23764	199.35225	192.49007	158.09688	
654	6.530	197.10120	193.52419	293.25217	199.33855	192.48163	158.08412	
655	6.540	197.10120	193.52419	293.25217	199.34586	192.48515	158.09119	
656	6.550	197.10544	193.52515	293.26309	199.35316	192.48865	158.09831	
657	6.560	197.10048	193.52403	293.25034	199.32404	192.47467	158.07007	
658	6.570	197.10120	193.52419	293.25217	199.33128	192.47815	158.07707	
659	6.580	197.10333	193.52469	293.25760	199.34404	192.48428	158.08942	
660	6.590	197.10048	193.52403	293.25034	199.33488	192.47986	158.08060	
661	6.600	197.10048	193.52403	293.25034	199.33673	192.48076	158.08237	
662	6.610	197.10544	193.52515	293.26309	199.32947	192.47728	158.07532	
663	6.620	197.10120	193.52419	293.25217	199.32806	192.47940	158.07318	
664	6.630	197.10475	193.52501	293.26126	199.34769	192.48602	158.09297	
665	6.640	197.09558	193.52295	293.23764	199.34404	192.48428	158.08942	
666	6.650	197.09981	193.52390	293.24854	199.35178	192.49078	158.09618	
667	6.660	197.10544	193.52515	293.26309	199.34036	192.48250	158.08588	
668	6.670	197.09981	193.52390	293.24854	199.32225	192.47383	158.06831	
669	6.680	197.09981	193.52390	293.24854	199.32947	192.47728	158.07532	
670	6.690	197.09981	193.52390	293.24854	199.34215	192.49081	158.08549	
671	6.700	197.10120	193.52419	293.25217	199.32767	192.47641	158.07358	
672	6.710	197.10048	193.52403	293.25034	199.34586	192.48515	158.09119	
673	6.720	197.09909	193.52373	293.24670	199.33533	192.48289	158.08023	
674	6.730	197.10190	193.52435	293.25397	199.33673	192.48076	158.08237	
675	6.740	197.10333	193.52469	293.25760	199.35135	192.48778	158.09653	
676	6.750	197.09698	193.52327	293.24127	199.34218	192.48338	158.08765	
677	6.760	197.10687	193.52548	293.26675	199.35178	192.49078	158.09618	
678	6.770	197.10544	193.52515	293.26309	199.33395	192.48128	158.07916	
679	6.780	197.09558	193.52295	293.23764	199.33673	192.48076	158.08237	
680	6.790	197.10048	193.52403	293.25034	199.35316	192.48865	158.09831	
681	6.800	197.09698	193.52327	293.24127	199.37640	192.48253	158.10225	
682	6.810	197.10403	193.52484	293.25943	199.33673	192.48076	158.08237	
683	6.820	197.10190	193.52435	293.25397	199.33084	192.47885	158.07635	
684	6.830	197.10403	193.52484	293.25943	199.33128	192.47815	158.07707	
685	6.840	197.10333	193.52469	293.25760	199.31865	192.47209	158.06483	
686	6.850	197.10262	193.52452	293.25580	199.34952	192.48689	158.09474	
687	6.860	197.10899	193.52594	293.27225	199.35316	192.48865	158.09831	
688	6.870	197.10759	193.52563	293.26859	199.34859	192.48831	158.09332	
689	6.880	197.10616	193.52531	293.26492	199.34586	192.48515	158.09119	
690	6.890	197.10616	193.52531	293.26492	199.32947	192.47728	158.07532	
691	6.900	197.10190	193.52435	293.25397	199.35316	192.48865	158.09831	
692	6.910	197.10262	193.52452	293.25580	199.33128	192.47815	158.07707	
693	6.920	197.09767	193.52341	293.24307	199.32806	192.47940	158.07318	
694	6.930	197.10120	193.52419	293.25217	199.34904	192.49132	158.09296	
695	6.940	197.09628	193.52310	293.23944	199.34264	192.48640	158.08728	
696	6.950	197.09558	193.52295	293.23764	199.31151	192.46867	158.05788	
697	6.960	197.09909	193.52373	293.24670	199.34218	192.48338	158.08765	
698	6.970	197.09909	193.52373	293.24670	199.32947	192.47728	158.07532	
699	6.980	197.09558	193.52295	293.23764	199.32404	192.47467	158.07007	
700	6.990	197.10544	193.52515	293.26309	199.35316	192.48865	158.09831	
701	7.000	197.09698	193.52327	293.24127	199.33310	192.47902	158.07883	
702	7.010	197.09698	193.52327	293.24127	199.32404	192.47467	158.07007	
703	7.020	197.09837	193.52357	293.24487	199.35316	192.48865	158.09831	
704	7.030	197.10475	193.52501	293.26126	199.31151	192.46867	158.05788	
705	7.040	197.10120	193.52419	293.25217	199.33488	192.47986	158.08060	
706	7.050	197.10190	193.52435	293.25397	199.32767	192.47641	158.07358	
707	7.060	197.09837	193.52357	293.24487	199.33673	192.48076	158.08237	
708	7.070	197.09837	193.52357	293.24487	199.34358	192.49240	158.08656	
709	7.080	197.09628	193.52310	293.23944	199.34586	192.48515	158.09119	
710	7.090	197.09558	193.52295	293.23764	199.32855	192.47870	158.07390	
711	7.100	197.10544	193.52515	293.26309	199.34404	192.48428	158.08942	
712	7.110	197.10190	193.52435	293.25397	199.34769	192.48602	158.09297	
713	7.120	197.09767	193.52341	293.24307	199.33942	192.48764	158.08337	
714	7.130	197.10475	193.52501	293.26126	199.34769	192.48602	158.09297	
715	7.140	197.10120	193.52419	293.25217	199.34950	192.49062	158.09367	
716	7.150	197.10048	193.52403	293.25034	199.34404	192.48428	158.08942	
717	7.160	197.10759	193.52563	293.26859	199.34586	192.48515	158.09119	
718	7.170	197.11186	193.52660	293.27960	199.32767	192.47641	158.07358	
719	7.180	197.10262	193.52452	293.25580	199.34404	192.48428	158.08942	
720	7.190	197.10826	193.52577	293.27042	199.34404	192.48428	158.08942	
721	7.200	197.10333	193.52469	293.25760	199.34218	192.48338	158.08765	
722	7.210	197.10403	193.52484	293.25943	199.34859	192.48831	158.09332	
723	7.220	197.10616	193.52531	293.26492	199.35316	192.48865	158.09831	
724	7.230	197.09558	193.52295	293.23764	199.33673	192.48076	158.08237	
725	7.240	197.10048	193.52403	293.25034	199.33488	192.47986	158.08060	
726	7.250	197.09909	193.52373	293.24670	199.33217	192.47656	158.06793	
727	7.260	197.09698	193.52327	293.24127	199.32045	192.47296	158.06657	
728	7.270	197.09909	193.52373	293.24670	199.35316	192.48865	158.09831	
729	7.280	197.09698	193.52327	293.24127	199.35316	192.48865	158.09831	
730	7.290	197.09698	193.52327	293.24127	199.31589	192.47635	158.06055	
731	7.300	197.09558	193.52295	293.23764	199.35316	192.48865	158.09831	
732	7.310	197.09558	193.52295	293.23764	199.32309	192.47980	158.06755	
733	7.320	197.10333	193.52469	293.25760	199.34218	192.48338	158.08765	
734	7.330	197.10544	193.52515	293.26309	199.34404	192.48428	158.08942	
735	7.340	197.10190	193.52435	293.25397	199.34769	192.48602	158.09297	
736	7.350	197.10687	193.52548	293.26675	199.35316	192.48865	158.09831	
737	7.360	197.09981	193.52390	293.24854	199.35040	192.49290	158.09402	
738	7.370	197.09981	193.52390	293.24854	199.34952	192.48689	158.09474	
739	7.380	197.10687	193.52548	293.26675	199.34126	192.48854	158.08513	
740	7.390	197.09767	193.52341	293.24307	199.33128	192.47815	158.07707	
